<?xml version="1.0" standalone="no"?><!DOCTYPE svg PUBLIC "-//W3C//DTD SVG 1.1//EN" "http://www.w3.org/Graphics/SVG/1.1/DTD/svg11.dtd"><svg t="1603800332136" class="icon" viewBox="0 0 1024 1024" version="1.1" xmlns="http://www.w3.org/2000/svg" p-id="3126" xmlns:xlink="http://www.w3.org/1999/xlink" width="200" height="200"><defs><style type="text/css"></style></defs><path d="M227.13685333 929.10023111c-39.61287111 0-72.23523555-32.62236445-72.23523555-72.23523556V174.70805333c0-39.61287111 32.62236445-72.23523555 72.23523555-72.23523555h499.23868445c39.61287111 0 72.23523555 32.62236445 72.23523555 72.23523555v93.78929778c0 16.31118222-13.39847111 29.70965333-29.70965333 29.70965334s-29.70965333-13.39847111-29.70965333-29.70965334v-93.78929778c0-6.99050667-5.82542222-12.81592889-12.81592889-12.81592888H227.13685333c-6.99050667 0-12.81592889 5.82542222-12.81592888 12.81592888v682.15694222c0 6.99050667 5.82542222 12.81592889 12.81592888 12.8159289h294.18382222c7.57304889 0 15.14609778 3.49525333 20.38897778 9.32067555 5.24288 5.82542222 8.15559111 13.39847111 8.15559112 20.97152-0.58254222 15.72864-12.81592889 28.54456889-29.12711112 29.12711111H227.13685333z" fill="#2C2C2C" p-id="3127"></path><path d="M298.20700445 304.61496889c-14.56355555 0-26.2144-11.65084445-26.2144-26.2144s11.65084445-26.2144 26.2144-26.2144h299.42670222c14.56355555 0 26.2144 11.65084445 26.2144 26.2144s-11.65084445 26.2144-26.2144 26.2144H298.20700445z m0 134.56725333c-14.56355555 0-26.2144-11.65084445-26.2144-26.2144s11.65084445-26.2144 26.2144-26.2144h194.56910222c14.56355555 0 26.2144 11.65084445 26.2144 26.2144S507.33966222 439.18222222 492.77610667 439.18222222H298.20700445z m0 135.14979556c-14.56355555 0-26.2144-11.65084445-26.2144-26.79694223 0-14.56355555 11.65084445-26.2144 26.2144-26.79694222H424.61866667c14.56355555 0 26.2144 11.65084445 26.2144 26.79694222 0 14.56355555-11.65084445 26.79694222-26.2144 26.79694223H298.20700445z m469.5290311-156.12131556c-127.57674667 0-230.68672 103.69251555-230.68672 230.68672s103.69251555 230.68672 230.68672 230.68672S998.42275555 775.89162667 998.42275555 648.89742222c0.58254222-127.57674667-103.10997333-230.68672-230.68672-230.68672z m0 403.11921778c-94.95438222 0-172.43249778-77.47811555-172.43249777-172.43249778s77.47811555-172.43249778 172.43249777-172.43249777S940.16853333 553.94304 940.16853333 648.89742222c0.58254222 94.95438222-76.89557333 172.43249778-172.43249778 172.43249778z" fill="#2C2C2C" p-id="3128"></path><path d="M825.40771555 746.76451555c-3.49525333 0-6.40796445-0.58254222-9.32067555-2.33016888l-48.35100445-34.95253334-48.35100444 34.95253334c-11.06830222 5.24288-31.45728 1.16508445-28.54456889-20.97152l16.89372445-57.67168-47.18592-34.36999112c-7.57304889-7.57304889-8.15559111-20.38897778 0-27.96202666 2.91271111-2.91271111 6.99050667-5.24288 11.06830222-5.82542222L730.45333333 595.30353778l19.22389334-54.75896889c4.66033778-9.90321778 16.89372445-13.98101333 26.2144-8.73813334 4.07779555 1.74762667 6.99050667 5.24288 8.73813333 8.73813334l19.22389333 54.75896889 58.83676445 2.33016889c7.57304889 1.16508445 13.98101333 7.57304889 15.72864 13.39847111 1.74762667 5.82542222 0.58254222 15.14609778-5.24288 20.38897777l-47.18592 34.36999112 16.89372444 57.67168c1.74762667 11.06830222-5.24288 20.97152-16.31118222 22.71914666 1.16508445 0.58254222 0 0.58254222-1.16508445 0.58254222z" fill="#2C2C2C" p-id="3129"></path></svg>