<?xml version="1.0" standalone="no"?><!DOCTYPE svg PUBLIC "-//W3C//DTD SVG 1.1//EN" "http://www.w3.org/Graphics/SVG/1.1/DTD/svg11.dtd"><svg t="1603454660447" class="icon" viewBox="0 0 1024 1024" version="1.1" xmlns="http://www.w3.org/2000/svg" p-id="3926" xmlns:xlink="http://www.w3.org/1999/xlink" width="200" height="200"><defs><style type="text/css"></style></defs><path d="M370.5 929.7h-48.3c-9.7 0-18.9-3.8-25.7-10.6-6.9-6.9-10.7-16.1-10.7-25.8v-28.4c0-3.9-4.1-9.5-7.8-10.7l-0.8-0.2-37.5-15.4-0.9-0.5c-3.4-1.8-10-0.8-12.7 1.9l-20.2 20.2c-6.8 6.9-16 10.7-25.8 10.7-9.7 0-18.9-3.8-25.8-10.7L120 826c-6.9-6.9-10.7-16.1-10.7-25.8s3.8-18.9 10.7-25.8l20.2-20.2c2.7-2.7 3.7-9.5 1.9-13l-0.4-0.8-15.4-37.4-0.2-0.8c-1.2-3.7-6.8-7.9-10.7-7.9H87c-9.7 0-18.9-3.8-25.8-10.6-6.9-6.9-10.7-16.1-10.7-25.8v-48.3c0-9.7 3.8-18.9 10.7-25.8 6.9-6.9 16.1-10.7 25.8-10.7h28.5c3.9 0 9.5-4.1 10.7-7.9l0.2-0.8 15.4-37.4 0.4-0.8c1.8-3.4 0.8-10.1-1.9-12.9l-20.1-20.2c-6.9-6.9-10.7-16-10.7-25.8s3.8-18.9 10.7-25.8l34.1-34.1c6.9-6.9 16.1-10.7 25.8-10.7 9.8 0 18.9 3.8 25.8 10.7l20.3 20.2c2.7 2.7 9.4 3.7 12.9 1.9l0.8-0.4 37.4-15.4 0.8-0.2c3.7-1.2 7.8-6.7 7.8-10.7v-28.5c0-9.7 3.8-18.9 10.7-25.8 6.9-6.9 16-10.7 25.8-10.7h48.4c9.7 0 18.9 3.8 25.8 10.7 6.9 6.9 10.7 16 10.7 25.8v28.5c0 3.9 4.1 9.5 7.9 10.7l0.8 0.2 37.4 15.4 0.8 0.4c3.4 1.8 10.2 0.8 12.9-1.9l20.2-20.2c6.9-6.9 16.1-10.7 25.8-10.7s18.9 3.8 25.7 10.7l34.2 34.2c6.9 6.9 10.7 16 10.7 25.8 0 9.7-3.8 18.9-10.7 25.8l-20.2 20.2c-2.7 2.7-3.7 9.5-1.9 12.9l0.4 0.8 15.4 37.4 0.2 0.8c1.2 3.8 6.8 7.9 10.7 7.9H606c9.7 0 18.9 3.8 25.8 10.7 6.9 6.9 10.7 16 10.7 25.8V658c0 9.7-3.8 18.9-10.7 25.8-6.9 6.9-16 10.7-25.8 10.7h-28.4c-3.9 0-9.5 4.1-10.7 7.9l-0.2 0.7-15.7 37.4-0.4 0.8c-1.8 3.4-0.8 10.2 1.9 13l20.2 20.1c6.9 6.9 10.7 16.1 10.7 25.8 0 9.8-3.8 18.9-10.7 25.8l-34.2 34.2c-6.8 6.9-15.9 10.7-25.7 10.7h-0.1c-9.7 0-18.9-3.8-25.8-10.8L466.8 840c-2.7-2.7-9.5-3.7-12.9-1.9l-0.8 0.5-37.5 15.4-0.7 0.2c-3.8 1.2-7.9 6.8-7.9 10.7v28.4c0 9.7-3.8 18.9-10.7 25.8-7 6.8-16.1 10.6-25.8 10.6z m-81.2-109.3c18.3 6.1 32.1 25.1 32.1 44.5v28.4c0 0.3 0.2 0.5 0.2 0.5s0.2 0.2 0.6 0.2h48.3c0.3 0 0.5-0.1 0.6-0.2 0 0 0.2-0.2 0.2-0.5v-28.4c0-19.4 13.7-38.3 32.1-44.5l34.5-14.2c17.3-8.8 40.4-5.2 54.1 8.5l20.1 20.2c0.2 0.2 0.4 0.2 0.5 0.2 0.1 0 0.3 0 0.5-0.2l34.3-34.3c0.2-0.2 0.2-0.3 0.2-0.6 0-0.1 0-0.3-0.2-0.6l-20.2-20.1c-13.7-13.7-17.3-36.8-8.6-54.1l14.2-34.5c6.2-18.3 25.1-32.1 44.5-32.1h28.4c0.3 0 0.4-0.1 0.5-0.2 0.1-0.1 0.2-0.3 0.2-0.5v-48.4c0-0.3-0.2-0.5-0.2-0.6-0.1-0.1-0.2-0.2-0.5-0.2h-28.4c-19.4 0-38.3-13.7-44.5-32.1l-14.2-34.5c-8.7-17.3-5.1-40.3 8.6-54.1l20.2-20.2c0.2-0.2 0.2-0.5 0.2-0.5 0-0.2-0.1-0.4-0.2-0.5l-34.3-34.2c-0.2-0.2-0.4-0.2-0.5-0.2-0.2 0-0.4 0.1-0.6 0.2L491.9 453c-13.7 13.7-36.8 17.4-54.1 8.6l-34.4-14.2c-18.4-6.2-32.1-25.1-32.1-44.5v-28.5c0-0.3-0.2-0.5-0.2-0.5-0.1-0.1-0.3-0.3-0.5-0.3h-48.4c-0.3 0-0.5 0.1-0.5 0.2-0.1 0.1-0.2 0.2-0.2 0.5v28.5c0 19.4-13.7 38.4-32.1 44.5l-34.5 14.2c-17.3 8.7-40.4 5.1-54-8.6l-20.2-20.1c-0.2-0.2-0.5-0.2-0.6-0.2-0.1 0-0.3 0-0.6 0.2L145.3 467c-0.2 0.2-0.2 0.4-0.2 0.6 0 0 0 0.2 0.2 0.4l20.2 20.2c13.7 13.7 17.4 36.8 8.6 54.1l-14.2 34.5c-6.1 18.4-25.1 32.1-44.5 32.1H86.9c-0.3 0-0.5 0.1-0.5 0.2-0.1 0.1-0.2 0.2-0.2 0.6V658c0 0.3 0.2 0.5 0.2 0.6 0 0 0.2 0.2 0.5 0.2h28.5c19.4 0 38.3 13.8 44.5 32.1l14.2 34.5c8.7 17.4 5.1 40.4-8.6 54.1l-20.2 20.1c-0.2 0.2-0.2 0.5-0.2 0.5 0 0.1 0 0.3 0.2 0.6l34.2 34.2c0.2 0.2 0.4 0.2 0.5 0.2 0.1 0 0.3 0 0.5-0.2l20.2-20.2c13.7-13.7 36.7-17.3 54-8.5l34.6 14.2z m57.1-61.8c-68.8 0-124.8-56-124.8-124.7 0-68.8 56-124.8 124.8-124.8s124.8 56 124.8 124.8c0 68.7-56 124.7-124.8 124.7z m0-213.8c-49.1 0-89.1 40-89.1 89.1 0 49.1 40 89.1 89.1 89.1 49.1 0 89.1-39.9 89.1-89.1 0-49.2-40-89.1-89.1-89.1zM756.7 511.8c-7.3 0-14.4-2.6-20.1-7.3-6.4-5.4-10.4-13-11.1-21.3l-1.8-20.5c-0.2-0.9-1.7-2.6-2.5-2.9l-0.8-0.2-0.7-0.2-27.7-8.7-0.8-0.4c-0.9-0.2-2.8 0.2-3.5 0.8l-13.3 15.8c-5.4 6.4-13 10.3-21.3 11-8.3 0.7-16.4-1.9-22.8-7.2l-26.8-22.6c-6.4-5.4-10.3-12.9-11.1-21.3-0.7-8.4 1.9-16.5 7.3-22.9l13.3-15.7c0.5-0.8 0.6-2.9 0.2-3.8l-0.5-0.7-0.4-0.7-13.3-25.7-0.3-0.8c-0.4-0.8-2.3-1.9-3.3-2l-20.4 1.8c-8.3 0.7-16.4-1.9-22.8-7.2-6.4-5.4-10.3-13-11.1-21.3l-3-34.9c-0.7-8.3 1.9-16.4 7.3-22.9 5.4-6.4 12.9-10.3 21.3-11l20.5-1.7c1-0.2 2.6-1.7 2.9-2.6l0.2-0.8 0.2-0.7 8.7-27.7 0.3-0.8c0.2-0.9-0.3-2.9-0.9-3.6L582.9 208c-6.4-5.4-10.3-12.9-11-21.3-0.7-8.4 1.9-16.5 7.2-22.8l22.5-26.8c5.4-6.4 13-10.3 21.3-11 8.3-0.7 16.5 1.9 22.9 7.2l15.8 13.3c0.8 0.5 2.9 0.6 3.7 0.2l0.8-0.5 0.7-0.4 25.7-13.2 0.7-0.3c0.8-0.4 1.9-2.3 1.9-3.3l-1.8-20.5c-0.7-8.3 1.9-16.4 7.2-22.8 5.4-6.4 13-10.3 21.3-11.1l34.9-3c8.3-0.7 16.5 1.9 22.8 7.3 6.4 5.4 10.3 13 11 21.3l1.8 20.5c0.2 0.9 1.7 2.6 2.6 2.9l0.8 0.2 0.7 0.2 27.6 8.7 0.8 0.4c0.8 0.2 2.8-0.3 3.6-0.9l13.3-15.8c5.4-6.4 13-10.3 21.3-11 8.3-0.7 16.4 1.9 22.8 7.2l26.8 22.5c6.4 5.4 10.3 13 11.1 21.3 0.7 8.3-1.9 16.4-7.2 22.8L903.2 195c-0.5 0.8-0.6 2.9-0.2 3.8l0.5 0.7 0.4 0.7 13.2 25.6 0.3 0.7c0.4 0.8 2.4 2 3.3 2l20.4-1.8c8.3-0.7 16.4 1.9 22.8 7.3 6.4 5.4 10.3 13 11 21.3l3 34.9c0.7 8.4-1.9 16.5-7.3 22.9-5.4 6.4-12.9 10.3-21.3 11l-20.5 1.8c-0.9 0.2-2.6 1.7-2.9 2.6l-0.2 0.8-0.2 0.7-8.7 27.6-0.3 0.8c-0.2 0.8 0.3 2.9 0.9 3.6l15.7 13.2c6.4 5.4 10.3 13 11 21.3 0.7 8.4-1.9 16.5-7.3 22.9l-22.6 26.8c-5.4 6.4-13 10.3-21.3 11-8.3 0.7-16.4-1.9-22.8-7.3l-15.6-13.2c-0.8-0.5-2.9-0.6-3.7-0.2l-0.7 0.5-26.5 13.7-0.7 0.3c-0.8 0.4-2 2.3-2 3.3l1.8 20.4c0.7 8.3-1.9 16.5-7.3 22.9-5.4 6.4-13 10.3-21.3 11l-34.9 3c-0.7 0.1-1.6 0.2-2.5 0.2z m-26.9-86.6c15.5 3.8 28.1 18.5 29.5 34.4l1.4 16.1 26.2-2.2-1.4-16.1c-1.4-15.9 8.6-32.5 23.2-39l23.7-12.2c13.7-8.4 32.9-7 45.2 3.3l12.5 10.5 17-20.1-12.5-10.5c-12.3-10.3-16.9-29-11-43.9l8-25.5c3.9-15.5 18.5-28.1 34.4-29.5l16.2-1.4-2.3-26.2-16.2 1.4c-16 1.4-32.5-8.6-39-23.2l-12.2-23.7c-8.3-13.7-6.9-32.9 3.4-45.1l10.5-12.5-20.2-16.9-10.5 12.5c-10.3 12.3-29 16.9-43.9 11l-25.4-8c-15.5-3.8-28.1-18.5-29.5-34.4l-1.4-16.2-26.2 2.2 1.4 16.2c1.4 16-8.6 32.5-23.2 39l-23.7 12.2c-13.7 8.3-32.9 6.9-45.2-3.4l-12.5-10.5-16.9 20.1 12.5 10.5c12.3 10.3 16.9 29 11 43.9l-8 25.4c-3.8 15.5-18.5 28.1-34.4 29.5l-16.2 1.4 2.2 26.2 16.2-1.4c16-1.3 32.5 8.6 38.9 23.2l12.2 23.7c8.3 13.7 6.9 33-3.4 45.2l-10.5 12.4 20.2 17 10.5-12.5c10.3-12.3 29-16.9 43.9-11l25.5 8.1z m-42.1 26z m0.1-0.1z m3.4-0.8z m196-26.9z m22.6-26.8z m-286.9-236z m205.6-28.3zM758 387c-22.4 0-43.9-7.8-61.2-22.4-19.5-16.4-31.4-39.4-33.6-64.8-2.2-25.4 5.7-50.1 22.1-69.5 16.4-19.5 39.4-31.4 64.8-33.6 25.4-2.2 50.1 5.7 69.5 22.1 19.5 16.4 31.4 39.4 33.6 64.8 2.2 25.4-5.7 50.1-22.1 69.5-16.4 19.5-39.4 31.4-64.8 33.6-2.8 0.2-5.5 0.3-8.3 0.3z m0.3-154.9c-1.7 0-3.5 0.1-5.2 0.2-15.9 1.4-30.3 8.8-40.5 21-10.3 12.2-15.2 27.6-13.8 43.5 1.4 15.9 8.8 30.3 21 40.5 12.2 10.3 27.6 15.1 43.5 13.8 15.9-1.4 30.3-8.8 40.5-21 10.3-12.2 15.2-27.6 13.8-43.5-1.4-15.9-8.8-30.3-21-40.5-10.9-9.2-24.3-14-38.3-14z" fill="#070707" p-id="3927"></path></svg>