<?xml version="1.0" standalone="no"?><!DOCTYPE svg PUBLIC "-//W3C//DTD SVG 1.1//EN" "http://www.w3.org/Graphics/SVG/1.1/DTD/svg11.dtd"><svg t="1603454753882" class="icon" viewBox="0 0 1024 1024" version="1.1" xmlns="http://www.w3.org/2000/svg" p-id="8241" xmlns:xlink="http://www.w3.org/1999/xlink" width="200" height="200"><defs><style type="text/css"></style></defs><path d="M957.1 242.11c-0.16-13.14-5.8-25.8-15.58-34.83l-84.17-76.85c-18.83-17.38-47.96-16.93-66.25 1.03L79.11 830.5c-11 10.78-14.8 26.61-9.92 41.3 4.88 14.71 17.41 25.14 32.73 27.23 38.22 5.17 74.96 7.53 110.22 7.53 320.48 0 517.08-194.91 556.45-237.83 17.36-18.98 16.69-48.13-1.51-66.34l-78.68-78.92 254.06-246.25c9.46-9.14 14.8-21.95 14.64-35.11z m-233.82 45.02l23.67-23.24 58.04 58.04-23.82 23.09-57.89-57.89z m12.23 102.14l-23.82 23.09-57.45-57.45 23.67-23.24 57.6 57.6z m-24.08 247.34C655.3 693.7 461.96 862.66 159.06 841.1l449.82-441.64 57.16 57.16-33.2 32.18c-9.31 9.04-14.49 21.19-14.58 34.16-0.08 12.97 4.92 25.16 14.05 34.27l79.12 79.38z m139.22-358.92l-58.34-58.34 32.84-32.25 61.24 55.93-35.74 34.66z" fill="#666666" p-id="8242"></path></svg>