<?xml version="1.0" standalone="no"?><!DOCTYPE svg PUBLIC "-//W3C//DTD SVG 1.1//EN" "http://www.w3.org/Graphics/SVG/1.1/DTD/svg11.dtd"><svg t="1603800438084" class="icon" viewBox="0 0 1024 1024" version="1.1" xmlns="http://www.w3.org/2000/svg" p-id="7269" xmlns:xlink="http://www.w3.org/1999/xlink" width="200" height="200"><defs><style type="text/css"></style></defs><path d="M758.477624 616.413048 758.477624 616.413048 758.477624 616.413048c38.743396 0 73.613578 15.497972 96.860025 38.743396 23.246447 27.120684 38.743396 58.115606 38.743396 96.860025l0 0 0 0 0 0 0 0c0 34.869159-15.497972 69.739341-38.743396 92.984764-23.246447 27.120684-58.115606 38.743396-92.984764 38.743396l0 0-3.874237 0 0-38.743396 3.874237 0 0 0c23.246447 0 46.492894-11.622712 65.86408-27.120684 15.497972-15.497972 27.120684-42.618657 27.120684-65.86408l0 0 0 0 0 0 0 0c0-27.120684-11.622712-50.367131-27.120684-65.86408-19.37221-19.37221-42.618657-27.120684-69.739341-27.120684l0 0 0 0L758.477624 616.413048zM618.999966 449.814706l100.734262 174.346817c11.622712-3.874237 27.120684-7.748475 38.743396-7.748475l0 0 0 42.618657 0 0c-7.748475 0-19.37221 0-27.120684 3.874237l0 0c-3.874237 0-3.874237 0-7.748475 0 0 3.874237-3.874237 3.874237-3.874237 3.874237l0 0 0 0c-19.37221 7.748475-30.994921 23.246447-42.618657 38.743396 0 3.874237-3.874237 7.748475-3.874237 11.622712l0 0c-3.874237 11.622712-7.748475 23.246447-7.748475 34.869159l0 0 0 0 0 0 0 0c0 23.246447 11.622712 50.367131 27.120684 65.86408 19.37221 15.497972 42.618657 27.120684 65.86408 27.120684l0 0 0 0 0 0 0 38.743396 0 0 0 0 0 0c-34.869159 0-69.739341-11.622712-92.984764-38.743396-23.246447-23.246447-38.743396-58.115606-38.743396-92.984764l0 0 0 0 0 0 0 0c0-19.37221 3.874237-34.869159 7.748475-50.367131l0 0c3.874237-7.748475 3.874237-11.622712 7.748475-15.497972 11.622712-19.37221 23.246447-34.869159 42.618657-46.492894l-100.734262-170.47258c0 3.874237-3.874237 3.874237-7.748475 3.874237l0 0c-19.37221 11.622712-42.618657 15.497972-69.739341 15.497972l0-38.743396c19.37221 0 38.743396-3.874237 54.241368-11.622712l0 0c3.874237-3.874237 7.748475-3.874237 11.622712-7.748475 0 0 3.874237 0 7.748475-3.874237l0 0 0 0 0 0c15.497972-11.622712 30.994921-23.246447 38.743396-38.743396l0 0c3.874237-3.874237 3.874237-7.748475 7.748475-7.748475 7.748475-19.37221 15.497972-42.618657 15.497972-65.86408l0 0 0 0 0 0 0 0c0-38.743396-15.497972-69.739341-38.743396-96.860025-27.120684-23.246447-58.115606-38.743396-96.860025-38.743396l0 0 0 0 0-38.743396 0 0 0 0c50.367131 0 92.984764 19.37221 123.980709 50.367131s50.367131 73.613578 50.367131 123.980709l0 0 0 0 0 0 0 0c0 30.994921-7.748475 58.115606-19.37221 85.23629-3.874237 3.874237-3.874237 7.748475-7.748475 11.622712l0 0C642.246413 426.568259 630.623701 438.191994 618.999966 449.814706zM506.642992 488.559125 506.642992 488.559125 506.642992 488.559125 506.642992 488.559125c-27.120684 0-54.241368-7.748475-77.487815-19.37221l-96.860025 166.598342c11.622712 3.874237 19.37221 11.622712 30.994921 19.37221 23.246447 27.120684 38.743396 58.115606 38.743396 96.860025l0 0 0 0 0 0 0 0c0 34.869159-15.497972 69.739341-38.743396 92.984764-27.120684 27.120684-58.115606 38.743396-96.860025 38.743396l0 0 0 0 0-38.743396 0 0 0 0c27.120684 0 50.367131-11.622712 65.86408-27.120684 19.37221-15.497972 27.120684-42.618657 27.120684-65.86408l0 0 0 0 0 0 0 0c0-27.120684-7.748475-50.367131-27.120684-65.86408-15.497972-19.37221-38.743396-27.120684-65.86408-27.120684l0 0 0 0 0-42.618657 0 0 0 0c11.622712 0 19.37221 0 30.994921 3.874237l96.860025-170.47258c-3.874237-3.874237-7.748475-7.748475-11.622712-11.622712-30.994921-30.994921-50.367131-77.487815-50.367131-123.980709l0 0 0 0 0 0 0 0c0-50.367131 19.37221-92.984764 50.367131-123.980709 30.994921-30.994921 77.487815-50.367131 123.980709-50.367131l0 0 0 0 0 0 0 38.743396 0 0 0 0 0 0c-38.743396 0-69.739341 15.497972-92.984764 38.743396-27.120684 27.120684-42.618657 58.115606-42.618657 96.860025l0 0 0 0 0 0 0 0c0 38.743396 15.497972 69.739341 42.618657 92.984764 23.246447 27.120684 54.241368 42.618657 92.984764 42.618657l0 0 0 0 0 0L506.642992 488.559125zM266.431072 883.745652 266.431072 883.745652 266.431072 883.745652 266.431072 883.745652c-38.743396 0-69.739341-11.622712-96.860025-38.743396-23.246447-23.246447-38.743396-58.115606-38.743396-92.984764l0 0 0 0 0 0 0 0c0-38.743396 15.497972-69.739341 42.618657-96.860025 23.246447-23.246447 54.241368-38.743396 92.984764-38.743396l0 0 0 0 0 0 0 42.618657 0 0 0 0 0 0c-27.120684 0-50.367131 7.748475-65.86408 27.120684-15.497972 15.497972-27.120684 38.743396-27.120684 65.86408l0 0 0 0 0 0 0 0c0 23.246447 11.622712 50.367131 27.120684 65.86408 15.497972 15.497972 38.743396 27.120684 65.86408 27.120684l0 0 0 0 0 0L266.431072 883.745652z" p-id="7270"></path></svg>