<?xml version="1.0" standalone="no"?><!DOCTYPE svg PUBLIC "-//W3C//DTD SVG 1.1//EN" "http://www.w3.org/Graphics/SVG/1.1/DTD/svg11.dtd"><svg t="1602838784187" class="icon" viewBox="0 0 1024 1024" version="1.1" xmlns="http://www.w3.org/2000/svg" p-id="3688" xmlns:xlink="http://www.w3.org/1999/xlink" width="200" height="200"><defs><style type="text/css"></style></defs><path d="M1024.016 959.888s0-174.928-127.792-238.496c-80.88-40.24-49.712-9.456-149.008-50.624-99.28-41.104-122.8-54.544-122.8-54.544l-0.88-94.288s37.184-28.224 48.784-117.392c23.216 6.72 31.072-27.216 32.336-48.896 1.376-20.944 13.728-86.224-14.672-80.4 5.808-43.584 10.368-82.992 8.32-103.856-7.104-73.216-57.728-149.68-185.52-155.264-108.64 5.584-179.168 82.096-186.288 155.312-2.048 20.864 2.128 60.24 7.936 103.904-28.384-5.904-16.16 59.504-14.912 80.432 1.376 21.68 9.056 55.712 32.32 48.992 11.552 89.184 48.736 117.616 48.736 117.616l-0.928 94.8s-23.52 14.352-122.8 55.456c-99.28 41.184-68.144 8.528-149.024 48.752C0 784.992 0 959.888 0 959.888h0.032A48 48 0 0 0 48 1008h928a48 48 0 0 0 48-48l-0.016-0.112h0.032z" fill="" p-id="3689"></path></svg>